<?xml version="1.0" standalone="no"?><!DOCTYPE svg PUBLIC "-//W3C//DTD SVG 1.1//EN" "http://www.w3.org/Graphics/SVG/1.1/DTD/svg11.dtd"><svg t="1714569936322" class="icon" viewBox="0 0 1024 1024" version="1.1" xmlns="http://www.w3.org/2000/svg" p-id="4471" width="32" height="32" data-spm-anchor-id="a313x.search_index.0.i2.55b63a81rVFxDQ" xmlns:xlink="http://www.w3.org/1999/xlink"><path d="M527.808476 1023.999795C312.891399 1023.999795 138.688554 849.77647 138.688554 634.879873s174.202845-389.119922 389.119922-389.119922 389.119922 174.223325 389.119923 389.119922-174.202845 389.119922-389.119923 389.119922z m0-53.063669c195.358681 0 353.750969-158.371808 353.75097-353.730489 0-195.379161-158.392288-353.730489-353.75097-353.73049-195.379161 0-353.750969 158.371808-353.750969 353.73049 0 195.358681 158.371808 353.730489 353.750969 353.730489z" fill="#999999" p-id="4472"></path><path d="M158.98423 759.193448a353.976249 353.976249 0 0 1 112.353258-18.206716c167.587806 0 307.957698 116.510697 344.494011 272.977865A388.300722 388.300722 0 0 1 527.808476 1023.999795c-171.417566 0-316.968897-110.837738-368.824246-264.806347z" fill="#999999" p-id="4473"></path><path d="M510.66672 834.232153a228.904914 228.904914 0 0 0 140.943332 48.230391c76.881905 0 144.936931-37.724152 186.675162-95.662061-48.96767 89.436142-135.475173 155.422689-238.325712 176.721884a354.795449 354.795449 0 0 0-89.292782-129.290214z m368.189366-217.026516h2.72384M174.057507 623.800195c-1.1264 78.110704 26.030075 117.207017 81.469424 117.207017s59.576308 21.094396 12.451837 63.324147l-84.869103-30.883834-16.465916-50.954229 7.413758-98.693101z" fill="#999999" p-id="4474"></path><path d="M144.033833 650.11699A122.122216 122.122216 0 0 1 56.768571 532.479894a123.002855 123.002855 0 0 1 160.460768-117.022697l-12.513278 38.993912A82.001904 82.001904 0 0 0 97.728562 532.479894a82.493424 82.493424 0 0 0 58.163189 78.438384l-11.857918 39.198712zM901.937042 650.11699l-11.837438-39.198712A82.493424 82.493424 0 0 0 948.262792 532.479894a81.981424 81.981424 0 0 0-106.967018-78.028785l-12.513278-38.993912A123.002855 123.002855 0 0 1 989.202304 532.479894a122.142696 122.142696 0 0 1-87.265262 117.637096z" fill="#979797" p-id="4475"></path><path d="M527.808476 81.919984m-61.439987 0a61.439988 61.439988 0 1 0 122.879975 0 61.439988 61.439988 0 1 0-122.879975 0Z" fill="#999999" p-id="4476"></path><path d="M824.215457 412.077998l-27.545594-29.327355C726.218677 307.609538 630.679496 266.239947 527.747036 266.239947 424.835057 266.239947 329.377796 307.568578 258.92661 382.627763l-27.525114 29.327355-7.536639-39.505912A186.183643 186.183643 0 0 1 220.608538 337.919932C220.608538 208.056278 358.41843 102.39998 527.808476 102.39998s307.199939 105.656299 307.199939 235.519952c0 11.571198-1.1264 23.224315-3.276799 34.652153l-7.516159 39.505913zM527.747036 225.279955c97.361901 0 191.877082 35.184633 265.543627 97.7715C782.845865 222.699475 667.768768 143.359971 527.808476 143.359971 387.889144 143.359971 272.853007 222.617555 262.346769 322.928575A411.443118 411.443118 0 0 1 527.747036 225.279955z" fill="#979797" p-id="4477"></path><path d="M527.808476 564.633487c-80.383984 0-143.359971-101.49886-143.359971-231.116754S447.424492 102.39998 527.808476 102.39998s143.359971 101.51934 143.359972 231.137233-62.975987 231.096274-143.359972 231.096274zM527.808476 143.359971c-55.500789 0-102.39998 87.080943-102.399979 190.177242s46.899191 190.177242 102.399979 190.177242 102.39998-87.080943 102.39998-190.177242S583.309265 143.359971 527.808476 143.359971z" fill="#979797" p-id="4478"></path></svg>