<?xml version="1.0" standalone="no"?><!DOCTYPE svg PUBLIC "-//W3C//DTD SVG 1.1//EN" "http://www.w3.org/Graphics/SVG/1.1/DTD/svg11.dtd"><svg t="1714571097026" class="icon" viewBox="0 0 1024 1024" version="1.1" xmlns="http://www.w3.org/2000/svg" p-id="6086" width="32" height="32" xmlns:xlink="http://www.w3.org/1999/xlink"><path d="M315.8 954.1C191.6 965.9 87.4 921.5 47.4 849c-82.9-150.2 102.1-236.4 199.4-352.5 83.5-99.7 114-266.6 211-344.1 118.8-94.9 354.9-134 483.2 67.9 184.8 290.9-136.7 510.6-224.3 570.4-160.1 109.2-283.5 152.2-400.9 163.4z" fill="#FFFFFF" p-id="6087"></path><path d="M366.4 945.7c-124.3 11.8-179.1 16-219.1-56.5-82.9-150.3 102.1-236.4 199.4-352.6 83.5-99.7 114-266.6 211-344.1 118.8-94.9 283-117.7 383.1 39.8C1125.6 523.3 827.7 704 740 763.8 580 873 483.8 934.5 366.4 945.7z" fill="#9F58BC" p-id="6088"></path><path d="M276.4 977.8c-48.2 0-93.9-8.2-133.9-24.3-51.7-20.7-90.7-53-113-93.4-31.2-56.6-31.3-110.6-0.2-165 26.1-45.6 71.4-86.4 115.3-125.8 30.4-27.3 61.8-55.6 86.5-85 34.8-41.6 61-97.7 86.4-152 34.1-72.9 69.3-148.4 127.6-195 37.4-29.8 83.4-53.1 133-67.2C632 54.8 687.6 51.2 738.9 59.8 829.7 75 905.7 127 958.6 210.3c45.2 71.1 64.8 143.9 58.4 216.4-5.3 59.9-28.5 119.9-68.8 178.4C877.7 707.2 773.1 778.5 728.5 809c-78.8 53.8-150.9 93.2-220.5 120.6-63.5 25-125.7 40.2-190 46.3l-2-20.6 2 20.6c-14.1 1.2-27.9 1.9-41.6 1.9zM682.8 96.6c-30.7 0-62.4 4.5-93.4 13.3-43.8 12.5-85.9 33.7-118.5 59.7C420.1 210.2 388.5 278 355 349.8c-26.5 56.7-53.8 115.3-92.2 161.1-26.5 31.7-59.1 60.9-90.5 89.2-43.3 39-84.3 75.8-107.1 115.6-11.4 19.9-17.2 38.8-17.7 57.9-0.6 21.4 5.3 43.2 18.2 66.5 17.6 31.9 49.5 57.8 92.2 75 45.3 18.2 99.3 24.9 156.1 19.5 126-12 246.6-61.3 391.1-159.9 42.7-29.2 142.8-97.4 209-193.2 36.2-52.5 57-105.8 61.6-158.5 5.6-63.2-11.9-127.3-52.1-190.5-24.5-38.5-54.3-69.5-88.5-91.9-31-20.3-65.6-33.7-103-40-16-2.6-32.5-4-49.3-4z" fill="#424649" p-id="6089"></path><path d="M555.1 783.5c-7.1 0-14-3.7-17.9-10.2-5.8-9.9-2.5-22.5 7.3-28.3 23.5-13.8 47.9-29.4 72.8-46.3 47.6-32.4 173.9-118.6 226-238.2 4.6-10.5 16.8-15.3 27.2-10.7 10.5 4.6 15.3 16.8 10.7 27.2C824.4 607.5 691 698.6 640.7 732.9c-25.6 17.5-50.9 33.5-75.1 47.8-3.3 1.9-6.9 2.8-10.5 2.8z" fill="#424649" p-id="6090"></path></svg>